<svg width="58" height="144" viewBox="0 0 58 144" fill="none" xmlns="http://www.w3.org/2000/svg">
<path d="M27.3882 42.5056C41.8278 39.7354 48.674 34.4982 51.8882 22.0056C50.0607 3.66675 43.4729 1.80547 30.3882 0.505615C15.0842 4.00553 11.7267 9.56653 9.38819 22.0056C11.4018 39.2365 14.0659 42.1354 27.3882 42.5056ZM27.3882 42.5056V95.5056M27.3882 95.5056C13.0155 110.897 7.43315 121.447 3.38819 143.506M27.3882 95.5056C41.7608 110.897 46.8432 121.447 50.8882 143.506M0.5 21.0056C0.500039 46.5056 3.38819 59.0056 27.3882 56.0056C55.5 58.5056 57.5 51.5056 57.5 18.5056" stroke="black"/>
</svg>
