<svg width="78" height="144" viewBox="0 0 78 144" fill="none" xmlns="http://www.w3.org/2000/svg">
<path d="M30 0H48V6H30V0Z" fill="black"/>
<path d="M30 36H48V42H30V36Z" fill="black"/>
<path d="M24 6H30V12H24V6Z" fill="black"/>
<path d="M24 36H30V30H24V36Z" fill="black"/>
<path d="M18 12V30H24V12H18Z" fill="black"/>
<path d="M54 12V30H60V12H54Z" fill="black"/>
<path d="M48 6H54V12H48V6Z" fill="black"/>
<path d="M48 36H54V30H48V36Z" fill="black"/>
<path d="M54 51H60V45H54V51Z" fill="black"/>
<path d="M24 51H18V45H24V51Z" fill="black"/>
<path d="M30 96H36V102H30V96Z" fill="black"/>
<path d="M42 96H48V102H42V96Z" fill="black"/>
<path d="M42 57H54V51H42V57Z" fill="black"/>
<path d="M36 57H24V51H36V57Z" fill="black"/>
<path d="M48 102H54V114H48V102Z" fill="black"/>
<path d="M60 45H66V33H60V45Z" fill="black"/>
<path d="M18 45H12V33H18V45Z" fill="black"/>
<path d="M60 132H66V144H60V132Z" fill="black"/>
<path d="M72 15H78V3H72V15Z" fill="black"/>
<path d="M6 15H0V3H6V15Z" fill="black"/>
<path d="M24 102H30V114H24V102Z" fill="black"/>
<path d="M12 132H18V144H12V132Z" fill="black"/>
<path d="M36 42H42V96H36V42Z" fill="black"/>
<path d="M18 114H24V132H18V114Z" fill="black"/>
<path d="M54 114H60V132H54V114Z" fill="black"/>
<path d="M66 33H72V15H66V33Z" fill="black"/>
<path d="M12 33H6V24V15H12V33Z" fill="black"/>
</svg>
