<svg width="80" height="142" viewBox="0 0 80 142" fill="none" xmlns="http://www.w3.org/2000/svg">
<path d="M40 89.531C45.6667 95.8643 60.3 116.831 65.5 140.031M40 89.531C34.3333 95.8643 19.2 117.831 14 141.031M40 89.531L39.5 42.531M77 1.03101C77 30.631 51 53.1977 40 58.031C29 53.1977 3 31.631 3 2.03101M39.5 42.531C50.6747 43.1437 55.165 40.6212 56 24.531C54.0018 9.04631 50.553 4.43197 40.5 3.03101C26.9701 5.04734 24.806 9.5061 23.5 19.031C22.9187 36.6535 28.6508 39.0428 39.5 42.531Z" stroke="black" stroke-width="6"/>
</svg>
