<svg width="79" height="158" viewBox="0 0 79 158" fill="none" xmlns="http://www.w3.org/2000/svg">
<path d="M30.3222 91.609C28.9062 94.1291 27.7285 98.5585 24.757 105.252C21.7854 111.945 17.3013 122.734 14.2046 130.694C11.1079 138.655 9.53456 143.459 8.60604 146.17C7.67751 148.881 7.44151 149.354 7.67395 149.597C7.90638 149.84 8.61439 149.84 9.34386 149.84M30.3222 91.609C32.3676 95.2317 34.6013 98.7518 39.0247 105.983C42.3912 111.487 47.5388 121.011 52.4567 128.99C57.3747 136.97 61.7802 143.192 64.9543 147.224C69.6314 153.165 73.1394 155.322 75.3624 156.436C76.248 156.84 76.6414 156.919 77.0013 156.96C77.3613 157 77.676 157 78.0002 157M30.3222 91.609L30.5987 88.6592C30.4008 87.8668 29.998 86.9027 29.5259 78.8576C29.3686 71.4427 29.3686 57.6604 29.3686 50.4041L28.2508 40.8757M71.0868 22.6379C71.0868 25.2344 71.0868 27.7546 70.8437 30.9216C70.6005 34.0885 70.1285 37.79 69.6088 40.9391C69.0891 44.0881 68.5385 46.6083 67.7363 49.2478C66.9341 51.8873 65.9114 54.565 64.2248 57.2021C62.5382 59.8392 60.2568 62.3594 58.265 64.0658C56.2733 65.7722 54.6212 66.6385 52.4984 67.5179C50.3755 68.3974 47.8581 69.2637 43.9652 70.2243C40.0723 71.1849 34.9589 72.2087 32.159 72.7206C29.3591 73.2325 29.9158 73.2325 29.4438 73.2325C27.4771 72.0511 21.8593 70.8698 18.9975 68.6861C16.1356 66.5024 12.4382 63.3522 9.27472 59.5636C6.11129 55.7749 3.59389 51.4434 1.00021 46.2646M28.2508 40.8757C23.5255 41.0547 19.1967 40.8689 15.0179 39.3741C12.3518 38.4204 8.70382 36.9166 6.58505 35.5376C4.46627 34.1586 3.89404 32.9413 3.60793 31.2628C3.32181 29.5844 3.18841 27.4845 3.6903 24.9939C4.77407 19.6156 5.824 15.4504 7.41305 14.2483C8.60195 13.3488 14.0191 9.34519 18.0249 6.3375C19.621 5.13911 23.6563 1.75796 26.0366 1.32468C31.5446 0.322087 36.0511 1.82604 39.5562 3.32981C41.8698 4.32238 52.4308 6.93644 53.2502 9.92357C53.5374 10.9706 53.8311 12.6734 53.4983 14.7777C53.1732 16.8338 51.8578 21.1179 49.2218 26.2915C48.099 28.4951 47.1691 29.784 45.3039 31.572C43.4388 33.3601 40.8159 35.7307 38.5509 37.0588C34.8076 39.2537 31.7982 40.7413 28.2508 40.8757Z" stroke="black" stroke-width="2" stroke-linecap="round"/>
</svg>
