<svg width="1440" height="1024" viewBox="0 0 1440 1024" fill="none" xmlns="http://www.w3.org/2000/svg">
<path d="M100.5 31.4062V12.5625" stroke="black" stroke-width="6" stroke-linecap="round" stroke-linejoin="round"/>
<path d="M100.5 144.469C124.783 144.469 144.469 124.783 144.469 100.5C144.469 76.2167 124.783 56.5312 100.5 56.5312C76.2167 56.5312 56.5312 76.2167 56.5312 100.5C56.5312 124.783 76.2167 144.469 100.5 144.469Z" fill="#FFF52E" stroke="black" stroke-width="6" stroke-linecap="round" stroke-linejoin="round"/>
<path d="M50.25 50.25L37.6875 37.6875" stroke="black" stroke-width="6" stroke-linecap="round" stroke-linejoin="round"/>
<path d="M50.25 150.75L37.6875 163.312" stroke="black" stroke-width="6" stroke-linecap="round" stroke-linejoin="round"/>
<path d="M150.75 50.25L163.312 37.6875" stroke="black" stroke-width="6" stroke-linecap="round" stroke-linejoin="round"/>
<path d="M150.75 150.75L163.312 163.312" stroke="black" stroke-width="6" stroke-linecap="round" stroke-linejoin="round"/>
<path d="M31.4062 100.5H12.5625" stroke="black" stroke-width="6" stroke-linecap="round" stroke-linejoin="round"/>
<path d="M100.5 169.594V188.438" stroke="black" stroke-width="6" stroke-linecap="round" stroke-linejoin="round"/>
<path d="M169.594 100.5H188.438" stroke="black" stroke-width="6" stroke-linecap="round" stroke-linejoin="round"/>
<g clip-path="url(#clip0_80_1039)">
<circle cx="60.5" cy="1014.5" r="20.5" fill="#51BD09" stroke="black" stroke-width="6"/>
<path d="M61.0019 996.998C62.9232 996.998 66.0982 996.976 69.7519 994.793C73.4057 992.611 74.5882 989.876 74.9669 988.476C75.0379 988.223 75.0059 987.953 74.878 987.724C74.7501 987.495 74.5367 987.326 74.2844 987.253C73.0224 986.939 71.7059 986.912 70.4319 987.173" fill="#FFB8F7"/>
<path d="M61.0019 996.998C62.9232 996.998 66.0982 996.976 69.7519 994.793C73.4057 992.611 74.5882 989.876 74.9669 988.476C75.0379 988.223 75.0059 987.953 74.878 987.724C74.7501 987.495 74.5367 987.326 74.2844 987.253C73.0224 986.939 71.7059 986.912 70.4319 987.173" stroke="black" stroke-width="2" stroke-linecap="round" stroke-linejoin="round"/>
<path d="M51.572 987.173C50.298 986.912 48.9815 986.939 47.7195 987.253C47.4672 987.326 47.2538 987.495 47.1259 987.724C46.998 987.953 46.966 988.223 47.037 988.476C47.412 989.876 48.5982 992.61 52.252 994.793C55.9057 996.977 59.0807 996.998 61.002 996.998" fill="#FFB8F7"/>
<path d="M51.572 987.173C50.298 986.912 48.9815 986.939 47.7195 987.253C47.4672 987.326 47.2538 987.495 47.1259 987.724C46.998 987.953 46.966 988.223 47.037 988.476C47.412 989.876 48.5982 992.61 52.252 994.793C55.9057 996.977 59.0807 996.998 61.002 996.998" stroke="black" stroke-width="2" stroke-linecap="round" stroke-linejoin="round"/>
<path d="M65.177 982.099C66.842 980.746 68.427 980.224 69.372 980.021C69.6206 979.968 69.88 980.009 70.0999 980.137C70.3198 980.264 70.4845 980.469 70.562 980.711C71.047 982.211 71.6595 985.669 69.1732 989.995C66.687 994.321 62.5395 996.67 61.002 996.999" fill="#FFB8F7"/>
<path d="M65.177 982.099C66.842 980.746 68.427 980.224 69.372 980.021C69.6206 979.968 69.88 980.009 70.0999 980.137C70.3198 980.264 70.4845 980.469 70.562 980.711C71.047 982.211 71.6595 985.669 69.1732 989.995C66.687 994.321 62.5395 996.67 61.002 996.999" stroke="black" stroke-width="2" stroke-linecap="round" stroke-linejoin="round"/>
<path d="M56.827 982.099C55.162 980.749 53.572 980.222 52.627 980.021C52.3784 979.968 52.1189 980.009 51.899 980.137C51.6791 980.264 51.5144 980.469 51.437 980.711C50.952 982.211 50.3395 985.669 52.8257 989.995C55.312 994.321 59.4595 996.67 60.997 996.995" fill="#FFB8F7"/>
<path d="M56.827 982.099C55.162 980.749 53.572 980.222 52.627 980.021C52.3784 979.968 52.1189 980.009 51.899 980.137C51.6791 980.264 51.5144 980.469 51.437 980.711C50.952 982.211 50.3395 985.669 52.8257 989.995C55.312 994.321 59.4595 996.67 60.997 996.995" stroke="black" stroke-width="2" stroke-linecap="round" stroke-linejoin="round"/>
<path d="M61.002 996.998C61.002 996.998 66.002 994.248 66.002 986.896C66.002 981.146 62.9332 978.203 61.6032 977.201C61.4299 977.071 61.2189 977 61.002 977C60.785 977 60.574 977.071 60.4007 977.201C59.0707 978.203 56.002 981.141 56.002 986.896C56.002 994.248 61.002 996.998 61.002 996.998Z" fill="#FFB8F7" stroke="black" stroke-width="2" stroke-linecap="round" stroke-linejoin="round"/>
</g>
<path d="M1690.39 949.25H1126.61L1408.5 460.999L1690.39 949.25Z" fill="#FFF266" stroke="black" stroke-width="6"/>
<line x1="1162" y1="890" x2="1656" y2="890" stroke="black" stroke-width="6"/>
<line x1="1194" y1="830" x2="1621" y2="830" stroke="black" stroke-width="6"/>
<line x1="1229" y1="770" x2="1588" y2="770" stroke="black" stroke-width="6"/>
<line x1="1264" y1="710" x2="1552" y2="710" stroke="black" stroke-width="6"/>
<line x1="1301" y1="650" x2="1516" y2="650" stroke="black" stroke-width="6"/>
<line x1="1334" y1="590" x2="1484" y2="590" stroke="black" stroke-width="6"/>
<line x1="1369" y1="530" x2="1449" y2="530" stroke="black" stroke-width="6"/>
<line x1="1310" y1="893" x2="1310" y2="951" stroke="black" stroke-width="6"/>
<line x1="1410" y1="893" x2="1410" y2="951" stroke="black" stroke-width="6"/>
<line x1="1210" y1="891" x2="1210" y2="949" stroke="black" stroke-width="6"/>
<line x1="1209" y1="806" x2="1209" y2="832" stroke="black" stroke-width="6"/>
<line x1="1310" y1="773" x2="1310" y2="831" stroke="black" stroke-width="6"/>
<line x1="1410" y1="773" x2="1410" y2="831" stroke="black" stroke-width="6"/>
<line x1="1310" y1="653" x2="1310" y2="711" stroke="black" stroke-width="6"/>
<line x1="1410" y1="653" x2="1410" y2="711" stroke="black" stroke-width="6"/>
<line x1="1410" y1="533" x2="1410" y2="591" stroke="black" stroke-width="6"/>
<line x1="1360" y1="833" x2="1360" y2="891" stroke="black" stroke-width="6"/>
<line x1="1260" y1="831" x2="1260" y2="889" stroke="black" stroke-width="6"/>
<line x1="1260" y1="718" x2="1260" y2="771" stroke="black" stroke-width="6"/>
<line x1="1360" y1="713" x2="1360" y2="771" stroke="black" stroke-width="6"/>
<line x1="1360" y1="593" x2="1360" y2="651" stroke="black" stroke-width="6"/>
<rect y="916" width="1440" height="109" fill="#E2C36A"/>
<path d="M10.6875 966.5V924.625H4.40625C-3.92321 924.625 -11.9115 921.316 -17.8013 915.426C-23.6911 909.537 -27 901.548 -27 893.219C-27 890.442 -25.897 887.779 -23.9338 885.816C-21.9705 883.853 -19.3077 882.75 -16.5312 882.75C-13.7548 882.75 -11.092 883.853 -9.12873 885.816C-7.16545 887.779 -6.0625 890.442 -6.0625 893.219C-6.0625 894.594 -5.79172 895.955 -5.26562 897.225C-4.73951 898.495 -3.96839 899.649 -2.99627 900.621C-1.033 902.585 1.62976 903.688 4.40625 903.688H10.6875V882.75C10.6875 878.308 12.4522 874.047 15.5935 870.906C18.7347 867.765 22.9951 866 27.4375 866C31.8799 866 36.1403 867.765 39.2815 870.906C42.4228 874.047 44.1875 878.308 44.1875 882.75V924.625H50.4688C51.8435 924.625 53.2048 924.354 54.475 923.828C55.7451 923.302 56.8992 922.531 57.8713 921.559C58.8434 920.587 59.6145 919.433 60.1406 918.162C60.6667 916.892 60.9375 915.531 60.9375 914.156C60.9375 911.38 62.0405 908.717 64.0037 906.754C65.967 904.79 68.6298 903.688 71.4062 903.688C74.1827 903.688 76.8455 904.79 78.8088 906.754C80.772 908.717 81.875 911.38 81.875 914.156C81.875 922.486 78.5661 930.474 72.6763 936.364C66.7865 942.254 58.7982 945.562 50.4688 945.562H44.1875V966.5" fill="#51BD09"/>
<path d="M10.6875 966.5V924.625H4.40625C-3.92321 924.625 -11.9115 921.316 -17.8013 915.426C-23.6911 909.537 -27 901.548 -27 893.219C-27 890.442 -25.897 887.779 -23.9338 885.816C-21.9705 883.853 -19.3077 882.75 -16.5312 882.75C-13.7548 882.75 -11.092 883.853 -9.12873 885.816C-7.16545 887.779 -6.0625 890.442 -6.0625 893.219C-6.0625 894.594 -5.79172 895.955 -5.26561 897.225C-4.73951 898.495 -3.96839 899.649 -2.99627 900.621C-1.033 902.585 1.62976 903.688 4.40625 903.688H10.6875V882.75C10.6875 878.308 12.4522 874.047 15.5935 870.906C18.7347 867.765 22.9951 866 27.4375 866C31.8799 866 36.1403 867.765 39.2815 870.906C42.4228 874.047 44.1875 878.308 44.1875 882.75V924.625H50.4688C51.8435 924.625 53.2048 924.354 54.475 923.828C55.7451 923.302 56.8992 922.531 57.8713 921.559C58.8434 920.587 59.6145 919.433 60.1406 918.162C60.6667 916.892 60.9375 915.531 60.9375 914.156C60.9375 911.38 62.0405 908.717 64.0037 906.754C65.967 904.79 68.6298 903.688 71.4062 903.688C74.1827 903.688 76.8455 904.79 78.8088 906.754C80.772 908.717 81.875 911.38 81.875 914.156C81.875 922.486 78.5661 930.474 72.6763 936.364C66.7865 942.254 58.7982 945.562 50.4688 945.562H44.1875V966.5" stroke="black" stroke-width="6" stroke-linecap="round" stroke-linejoin="round"/>
<path d="M1448.77 1033V965.917H1458.81C1472.12 965.917 1484.89 960.616 1494.3 951.18C1503.71 941.745 1509 928.948 1509 915.604C1509 911.156 1507.24 906.891 1504.1 903.745C1500.96 900.6 1496.71 898.833 1492.27 898.833C1487.83 898.833 1483.58 900.6 1480.44 903.745C1477.3 906.891 1475.54 911.156 1475.54 915.604C1475.54 917.807 1475.11 919.987 1474.26 922.022C1473.42 924.057 1472.19 925.906 1470.64 927.463C1467.5 930.608 1463.24 932.375 1458.81 932.375H1448.77V898.833C1448.77 891.717 1445.95 884.892 1440.93 879.859C1435.91 874.827 1429.1 872 1422 872C1414.9 872 1408.09 874.827 1403.07 879.859C1398.05 884.892 1395.23 891.717 1395.23 898.833V965.917H1385.19C1383 965.917 1380.82 965.483 1378.79 964.64C1376.76 963.797 1374.92 962.562 1373.36 961.005C1371.81 959.447 1370.58 957.598 1369.74 955.564C1368.89 953.529 1368.46 951.348 1368.46 949.146C1368.46 944.698 1366.7 940.432 1363.56 937.287C1360.42 934.142 1356.17 932.375 1351.73 932.375C1347.29 932.375 1343.04 934.142 1339.9 937.287C1336.76 940.432 1335 944.698 1335 949.146C1335 962.49 1340.29 975.287 1349.7 984.722C1359.11 994.158 1371.88 999.458 1385.19 999.458H1395.23V1033" fill="#51BD09"/>
<path d="M1448.77 1033V965.917H1458.81C1472.12 965.917 1484.89 960.616 1494.3 951.18C1503.71 941.745 1509 928.948 1509 915.604C1509 911.156 1507.24 906.891 1504.1 903.745C1500.96 900.6 1496.71 898.833 1492.27 898.833C1487.83 898.833 1483.58 900.6 1480.44 903.745C1477.3 906.891 1475.54 911.156 1475.54 915.604C1475.54 917.807 1475.11 919.987 1474.26 922.022C1473.42 924.057 1472.19 925.906 1470.64 927.463C1467.5 930.608 1463.24 932.375 1458.81 932.375H1448.77V898.833C1448.77 891.717 1445.95 884.892 1440.93 879.859C1435.91 874.827 1429.1 872 1422 872C1414.9 872 1408.09 874.827 1403.07 879.859C1398.05 884.892 1395.23 891.717 1395.23 898.833V965.917H1385.19C1383 965.917 1380.82 965.483 1378.79 964.64C1376.76 963.797 1374.92 962.562 1373.36 961.005C1371.81 959.447 1370.58 957.598 1369.74 955.564C1368.89 953.529 1368.46 951.348 1368.46 949.146C1368.46 944.698 1366.7 940.432 1363.56 937.287C1360.42 934.142 1356.17 932.375 1351.73 932.375C1347.29 932.375 1343.04 934.142 1339.9 937.287C1336.76 940.432 1335 944.698 1335 949.146C1335 962.49 1340.29 975.287 1349.7 984.722C1359.11 994.158 1371.88 999.458 1385.19 999.458H1395.23V1033" stroke="black" stroke-width="6" stroke-linecap="round" stroke-linejoin="round"/>
<path d="M1437.27 947.807C1434.75 939.71 1426.15 935.186 1418.05 937.702C1409.96 940.218 1405.43 948.82 1407.95 956.916L1410.98 966.689C1413.5 974.786 1422.1 979.31 1430.2 976.794C1438.29 974.278 1442.82 965.676 1440.3 957.58L1437.27 947.807Z" fill="#8FFF8B" stroke="black" stroke-width="6" stroke-linecap="round" stroke-linejoin="round"/>
<path d="M1439.29 954.322L1444.18 952.804" stroke="black" stroke-width="6" stroke-linecap="round" stroke-linejoin="round"/>
<path d="M1405.09 964.95L1409.97 963.432" stroke="black" stroke-width="6" stroke-linecap="round" stroke-linejoin="round"/>
<path d="M1407.11 971.466L1412.36 969.835" stroke="black" stroke-width="6" stroke-linecap="round" stroke-linejoin="round"/>
<path d="M1403.06 958.435L1442.15 946.288" stroke="black" stroke-width="6" stroke-linecap="round" stroke-linejoin="round"/>
<path d="M1424.63 958.877L1430.32 974.846" stroke="#FFE645" stroke-width="6" stroke-linecap="round" stroke-linejoin="round"/>
<path d="M1440.95 960.95L1446.2 959.319" stroke="black" stroke-width="6" stroke-linecap="round" stroke-linejoin="round"/>
<path d="M1432.21 931.518L1428.66 938.257" stroke="black" stroke-width="6" stroke-linecap="round" stroke-linejoin="round"/>
<path d="M1402.89 940.628L1409.62 944.172" stroke="black" stroke-width="6" stroke-linecap="round" stroke-linejoin="round"/>
<defs>
<clipPath id="clip0_80_1039">
<rect width="134" height="134" fill="white" transform="translate(17 881)"/>
</clipPath>
</defs>
</svg>
