<svg width="1440" height="1024" viewBox="0 0 1440 1024" fill="none" xmlns="http://www.w3.org/2000/svg">
<circle cx="48" cy="49" r="97" fill="#2C6500"/>
<circle cx="1410.01" cy="990.825" r="97" transform="rotate(173.134 1410.01 990.825)" fill="#3F9100"/>
<circle cx="60" cy="851" r="97" fill="#3F9100"/>
<circle cx="-5" cy="560" r="97" fill="#3F9100"/>
<circle cx="-17" cy="167" r="97" fill="#3F9100"/>
<circle cx="1460.44" cy="865.901" r="97" transform="rotate(173.134 1460.44 865.901)" fill="#2C6500"/>
<circle cx="-5" cy="969" r="97" fill="#2C6500"/>
<circle cx="217" cy="35" r="97" fill="#3F9100"/>
<circle cx="1243.9" cy="1024.93" r="97" transform="rotate(173.134 1243.9 1024.93)" fill="#2C6500"/>
<circle cx="930" cy="-48" r="97" fill="#2C6500"/>
<circle cx="930" cy="1019" r="97" fill="#2C6500"/>
<circle cx="814" cy="-48" r="97" fill="#3F9100"/>
<circle cx="814" cy="1019" r="97" fill="#3F9100"/>
<circle cx="507" cy="-26" r="61" fill="#2C6500"/>
<circle cx="1466" cy="437" r="61" transform="rotate(90 1466 437)" fill="#2C6500"/>
<circle cx="-15" cy="434" r="61" transform="rotate(-90 -15 434)" fill="#3F9100"/>
<circle cx="-15" cy="878" r="61" transform="rotate(-90 -15 878)" fill="#2C6500"/>
<circle cx="385" cy="1036" r="61" transform="rotate(-180 385 1036)" fill="#2C6500"/>
<circle cx="450" cy="983" r="61" transform="rotate(-180 450 983)" fill="#3F9100"/>
<circle cx="109" cy="1023" r="61" fill="#3F9100"/>
<circle cx="507" cy="1041" r="61" fill="#2C6500"/>
<circle cx="1107" cy="-26" r="61" fill="#2C6500"/>
<circle cx="1107" cy="1041" r="61" fill="#3F9100"/>
<circle cx="346" cy="-26" r="61" fill="#2C6500"/>
<circle cx="603" cy="-1" r="61" fill="#2C6500"/>
<circle cx="1441" cy="533" r="61" transform="rotate(90 1441 533)" fill="#2C6500"/>
<circle cx="10" cy="338" r="61" transform="rotate(-90 10 338)" fill="#2C6500"/>
<circle cx="10" cy="782" r="61" transform="rotate(-90 10 782)" fill="#2C6500"/>
<circle cx="289" cy="1011" r="61" transform="rotate(-180 289 1011)" fill="#2C6500"/>
<circle cx="603" cy="1066" r="61" fill="#3F9100"/>
<circle cx="1203" cy="-1" r="61" fill="#3F9100"/>
<circle cx="1203" cy="1066" r="61" fill="#2C6500"/>
<circle cx="696" cy="-31" r="61" fill="#2C6500"/>
<circle cx="1471" cy="626" r="61" transform="rotate(90 1471 626)" fill="#2C6500"/>
<circle cx="-20" cy="245" r="61" transform="rotate(-90 -20 245)" fill="#2C6500"/>
<circle cx="-20" cy="689" r="61" transform="rotate(-90 -20 689)" fill="#2C6500"/>
<circle cx="196" cy="1041" r="61" transform="rotate(-180 196 1041)" fill="#3F9100"/>
<circle cx="696" cy="1036" r="61" fill="#2C6500"/>
<circle cx="1296" cy="-31" r="61" fill="#3F9100"/>
<circle cx="1471" cy="339" r="97" fill="#3F9100"/>
<circle cx="1473" cy="764" r="97" fill="#3F9100"/>
<circle cx="1039" cy="-31" r="97" fill="#2C6500"/>
<circle cx="1039" cy="1036" r="97" fill="#2C6500"/>
<circle cx="1432" cy="204" r="97" fill="#2C6500"/>
<circle cx="1392" cy="62" r="97" fill="#2C6500"/>
</svg>
